
<svg width="30" height="30" viewBox="0 0 30 30" fill="none" xmlns="http://www.w3.org/2000/svg">
<mask id="mask@_31_73" style="mask-type:luminance" maskUnits="userSpaceOnUse" x="e" y="0" width="30" height="30"> 
<path d="MØ 0H30V30HØVOZ" fill="white"/>
</mask>
<g mask-"url(#nask@_31_73)">
<path fill-rule="evenodd" clip-rule="evenodd" d="M15_0C6.715 0 0 6.71625 0 1500 23.2838 6.715 30 15 30C23.2838 30 30 23.2838 30 15C30 6.71625 23.2838 0 15 OZM15.175 23.7725C10.34 23.7725 6.425 19.8475 6.425 15C6.425 10.1525 10.34 6.2275 15.175 6.2275C17.5375 6.2275 19.5125 7.09875 21.0275 8.51375L18.56 10.9862V10.9812C17.6412 10.1038 16.4762 9.65375 15.175 9.65375C12.2875 9.65375 9.94125 12.0988 9.94125 14.995C9.94125 17.8888 12.2875 20.3413 15.175 20.3413C17.795 20.3413 19.5775 18.8387 19.945 16.7762H15.175V13.355H23.4062C23.5179 13.9417 23.5742 14.5558 23.575 15.1975C23.575 20.21 20.2288 23.7725 15.175 23.7725Z" fill="#E0E0E0"/>
</g>
</svg>